<svg width="187" height="35" viewBox="0 0 187 35" fill="none" xmlns="http://www.w3.org/2000/svg">
<path d="M11.672 34.576C8.824 34.576 6.328 33.76 4.184 32.128C2.04 30.464 0.968 28.432 0.968 26.032C0.968 24.208 1.4 22.72 2.264 21.568C3.128 20.416 4.264 19.568 5.672 19.024C7.08 18.448 8.6 18.16 10.232 18.16V18.64C7.672 18.64 5.56 19.28 3.896 20.56C2.264 21.808 1.448 23.632 1.448 26.032C1.448 28.336 2.472 30.256 4.52 31.792C6.6 33.328 8.984 34.096 11.672 34.096C14.2 34.096 16.136 33.488 17.48 32.272C18.856 31.024 19.544 29.376 19.544 27.328C19.544 25.76 19.16 24.432 18.392 23.344C17.656 22.256 16.696 21.312 15.512 20.512C14.36 19.712 13.128 18.96 11.816 18.256C9.32 16.88 7.368 15.712 5.96 14.752C4.776 13.92 3.864 13.008 3.224 12.016C2.616 10.992 2.312 9.696 2.312 8.128C2.312 5.76 3.192 3.872 4.952 2.464C6.744 1.024 9.096 0.303999 12.008 0.303999C13.832 0.303999 15.688 0.431999 17.576 0.688C19.496 0.943998 21.064 1.232 22.28 1.552V8.848C21.096 6.608 19.592 4.704 17.768 3.136C15.944 1.568 14.024 0.783998 12.008 0.783998C9.992 0.783998 8.344 1.264 7.064 2.224C5.816 3.152 5.192 4.432 5.192 6.064C5.192 7.248 5.576 8.32 6.344 9.28C7.112 10.208 8.04 11.056 9.128 11.824C10.216 12.592 11.32 13.296 12.44 13.936L15.08 15.52C16.584 16.384 17.928 17.248 19.112 18.112C20.296 18.976 21.224 19.984 21.896 21.136C22.6 22.288 22.952 23.76 22.952 25.552C22.952 28.176 21.976 30.336 20.024 32.032C18.072 33.728 15.288 34.576 11.672 34.576ZM42.3838 34.624C40.1118 34.624 38.0798 34.144 36.2878 33.184C34.4958 32.224 33.0718 30.688 32.0158 28.576C30.9918 26.432 30.4798 23.6 30.4798 20.08V3.664C30.2878 2.928 29.8718 2.32 29.2318 1.84C28.5918 1.328 27.9038 0.975998 27.1678 0.783998H37.6318C36.8958 0.975998 36.2078 1.328 35.5678 1.84C34.9598 2.32 34.5438 2.928 34.3198 3.664V20.08C34.3198 24.784 35.1838 28.24 36.9118 30.448C38.6398 32.656 40.8638 33.76 43.5838 33.76C45.3438 33.76 46.9598 33.296 48.4318 32.368C49.9358 31.44 51.1358 29.968 52.0318 27.952C52.9598 25.936 53.4238 23.312 53.4238 20.08V3.664C53.1998 2.928 52.7678 2.32 52.1278 1.84C51.5198 1.328 50.8318 0.975998 50.0638 0.783998H57.2158C56.4798 0.975998 55.7918 1.328 55.1518 1.84C54.5118 2.32 54.0798 2.928 53.8558 3.664V20.08C53.8558 23.44 53.3758 26.192 52.4158 28.336C51.4558 30.48 50.1118 32.064 48.3838 33.088C46.6558 34.112 44.6558 34.624 42.3838 34.624ZM87.3268 34H85.5028L63.9508 3.856V30.592C64.1748 31.328 64.5908 32.032 65.1988 32.704C65.8388 33.344 66.5428 33.776 67.3108 34H60.1588C60.8948 33.776 61.5828 33.344 62.2228 32.704C62.8628 32.032 63.2788 31.328 63.4708 30.592V3.136C63.1508 2.56 62.7348 2.048 62.2228 1.6C61.7428 1.12 61.2148 0.799997 60.6388 0.639997H66.4468L86.8468 29.2V4.096C86.6228 3.36 86.1908 2.656 85.5508 1.984C84.9428 1.312 84.2548 0.863998 83.4868 0.639997H90.6388C89.9028 0.863998 89.2148 1.312 88.5748 1.984C87.9668 2.656 87.5508 3.36 87.3268 4.096V34ZM121.086 34H110.526C111.262 33.776 111.95 33.424 112.59 32.944C113.23 32.432 113.646 31.824 113.838 31.12V22.864C113.838 21.104 113.422 19.584 112.59 18.304C111.79 17.024 110.51 16.384 108.75 16.384C107.566 16.384 106.35 16.816 105.102 17.68C103.854 18.544 102.798 19.712 101.934 21.184C101.102 22.656 100.686 24.304 100.686 26.128V31.12C100.91 31.824 101.326 32.432 101.934 32.944C102.574 33.424 103.262 33.776 103.998 34H93.5338C94.2698 33.776 94.9578 33.424 95.5978 32.944C96.2378 32.432 96.6538 31.824 96.8458 31.12V3.472C96.6538 2.768 96.2378 2.176 95.5978 1.696C94.9578 1.184 94.2698 0.831999 93.5338 0.639997H106.254C109.87 0.639997 112.638 1.088 114.558 1.984C116.51 2.88 117.486 4.608 117.486 7.168C117.486 8.544 117.134 9.68 116.43 10.576C115.726 11.472 114.814 12.256 113.694 12.928C112.606 13.6 111.406 14.24 110.094 14.848L107.934 15.952C108.19 15.92 108.462 15.904 108.75 15.904C111.758 15.904 114.014 16.688 115.518 18.256C117.022 19.792 117.774 21.712 117.774 24.016V31.12C117.966 31.824 118.382 32.432 119.022 32.944C119.662 33.424 120.35 33.776 121.086 34ZM100.686 22.816C101.294 21.056 102.206 19.6 103.422 18.448C104.638 17.296 105.95 16.272 107.358 15.376C108.446 14.672 109.454 13.92 110.382 13.12C111.342 12.32 112.11 11.408 112.686 10.384C113.294 9.328 113.598 8.048 113.598 6.544C113.598 4.912 113.262 3.712 112.59 2.944C111.95 2.176 111.07 1.68 109.95 1.456C108.862 1.232 107.63 1.12 106.254 1.12H100.686V22.816ZM133.81 34H123.346C124.082 33.776 124.77 33.424 125.41 32.944C126.05 32.432 126.466 31.824 126.658 31.12V3.472C126.466 2.768 126.05 2.176 125.41 1.696C124.77 1.184 124.082 0.831999 123.346 0.639997H133.81C133.074 0.831999 132.386 1.184 131.746 1.696C131.138 2.176 130.722 2.768 130.498 3.472V31.12C130.722 31.824 131.138 32.432 131.746 32.944C132.386 33.424 133.074 33.776 133.81 34ZM147.938 34.576C145.09 34.576 142.594 33.76 140.45 32.128C138.306 30.464 137.234 28.432 137.234 26.032C137.234 24.208 137.666 22.72 138.53 21.568C139.394 20.416 140.53 19.568 141.938 19.024C143.346 18.448 144.866 18.16 146.498 18.16V18.64C143.938 18.64 141.826 19.28 140.162 20.56C138.53 21.808 137.714 23.632 137.714 26.032C137.714 28.336 138.738 30.256 140.786 31.792C142.866 33.328 145.25 34.096 147.938 34.096C150.466 34.096 152.402 33.488 153.746 32.272C155.122 31.024 155.81 29.376 155.81 27.328C155.81 25.76 155.426 24.432 154.658 23.344C153.922 22.256 152.962 21.312 151.778 20.512C150.626 19.712 149.394 18.96 148.082 18.256C145.586 16.88 143.634 15.712 142.226 14.752C141.042 13.92 140.13 13.008 139.49 12.016C138.882 10.992 138.578 9.696 138.578 8.128C138.578 5.76 139.458 3.872 141.218 2.464C143.01 1.024 145.362 0.303999 148.274 0.303999C150.098 0.303999 151.954 0.431999 153.842 0.688C155.762 0.943998 157.33 1.232 158.546 1.552V8.848C157.362 6.608 155.858 4.704 154.034 3.136C152.21 1.568 150.29 0.783998 148.274 0.783998C146.258 0.783998 144.61 1.264 143.33 2.224C142.082 3.152 141.458 4.432 141.458 6.064C141.458 7.248 141.842 8.32 142.61 9.28C143.378 10.208 144.306 11.056 145.394 11.824C146.482 12.592 147.586 13.296 148.706 13.936L151.346 15.52C152.85 16.384 154.194 17.248 155.378 18.112C156.562 18.976 157.49 19.984 158.162 21.136C158.866 22.288 159.218 23.76 159.218 25.552C159.218 28.176 158.242 30.336 156.29 32.032C154.338 33.728 151.554 34.576 147.938 34.576ZM176.128 34C174.08 34 172.192 33.68 170.464 33.04C168.768 32.4 167.408 31.392 166.384 30.016C165.392 28.608 164.896 26.8 164.896 24.592C164.896 22.224 165.52 20.272 166.768 18.736C168.016 17.168 169.616 16.112 171.568 15.568C169.712 15.28 168.16 14.512 166.912 13.264C165.664 12.016 165.04 10.56 165.04 8.896V3.472C164.848 2.768 164.432 2.176 163.792 1.696C163.152 1.184 162.464 0.831999 161.728 0.639997H185.056L186.016 6.352C184.608 4.88 182.912 3.648 180.928 2.656C178.976 1.632 176.96 1.12 174.88 1.12H168.88V8.896C168.88 10.784 169.264 12.304 170.032 13.456C170.832 14.576 172 15.136 173.536 15.136H175.984C179.248 15.136 180.96 14.064 181.12 11.92L185.248 18.976C184 17.792 182.656 16.944 181.216 16.432C179.808 15.888 178.656 15.616 177.76 15.616H174.496C173.856 15.616 173.072 15.888 172.144 16.432C171.216 16.976 170.4 17.872 169.696 19.12C169.024 20.336 168.688 21.968 168.688 24.016C168.688 26.928 169.472 29.184 171.04 30.784C172.64 32.352 174.656 33.136 177.088 33.136C179.424 33.136 181.536 32.416 183.424 30.976C185.344 29.536 186.304 27.712 186.304 25.504H186.736C186.736 27.84 185.696 29.84 183.616 31.504C181.568 33.168 179.072 34 176.128 34Z" fill="#3E4727"/>
</svg>
