<svg width="186" height="35" viewBox="0 0 186 35" fill="none" xmlns="http://www.w3.org/2000/svg">
<path d="M10.7131 34.576C7.86514 34.576 5.36914 33.76 3.22514 32.128C1.08114 30.464 0.00913775 28.432 0.00913775 26.032C0.00913775 24.208 0.441138 22.72 1.30514 21.568C2.16914 20.416 3.30514 19.568 4.71314 19.024C6.12114 18.448 7.64114 18.16 9.27314 18.16V18.64C6.71314 18.64 4.60114 19.28 2.93714 20.56C1.30514 21.808 0.489138 23.632 0.489138 26.032C0.489138 28.336 1.51314 30.256 3.56114 31.792C5.64114 33.328 8.02514 34.096 10.7131 34.096C13.2411 34.096 15.1771 33.488 16.5211 32.272C17.8971 31.024 18.5851 29.376 18.5851 27.328C18.5851 25.76 18.2011 24.432 17.4331 23.344C16.6971 22.256 15.7371 21.312 14.5531 20.512C13.4011 19.712 12.1691 18.96 10.8571 18.256C8.36114 16.88 6.40914 15.712 5.00114 14.752C3.81714 13.92 2.90514 13.008 2.26514 12.016C1.65714 10.992 1.35314 9.696 1.35314 8.128C1.35314 5.76 2.23314 3.872 3.99314 2.464C5.78514 1.024 8.13714 0.303999 11.0491 0.303999C12.8731 0.303999 14.7291 0.431999 16.6171 0.688C18.5371 0.943998 20.1051 1.232 21.3211 1.552V8.848C20.1371 6.608 18.6331 4.704 16.8091 3.136C14.9851 1.568 13.0651 0.783998 11.0491 0.783998C9.03314 0.783998 7.38514 1.264 6.10514 2.224C4.85714 3.152 4.23314 4.432 4.23314 6.064C4.23314 7.248 4.61714 8.32 5.38514 9.28C6.15314 10.208 7.08114 11.056 8.16914 11.824C9.25714 12.592 10.3611 13.296 11.4811 13.936L14.1211 15.52C15.6251 16.384 16.9691 17.248 18.1531 18.112C19.3371 18.976 20.2651 19.984 20.9371 21.136C21.6411 22.288 21.9931 23.76 21.9931 25.552C21.9931 28.176 21.0171 30.336 19.0651 32.032C17.1131 33.728 14.3291 34.576 10.7131 34.576ZM41.4249 34.624C39.1529 34.624 37.1209 34.144 35.3289 33.184C33.5369 32.224 32.1129 30.688 31.0569 28.576C30.0329 26.432 29.5209 23.6 29.5209 20.08V3.664C29.3289 2.928 28.9129 2.32 28.2729 1.84C27.6329 1.328 26.9449 0.975998 26.2089 0.783998H36.6729C35.9369 0.975998 35.2489 1.328 34.6089 1.84C34.0009 2.32 33.5849 2.928 33.3609 3.664V20.08C33.3609 24.784 34.2249 28.24 35.9529 30.448C37.6809 32.656 39.9049 33.76 42.6249 33.76C44.3849 33.76 46.0009 33.296 47.4729 32.368C48.9769 31.44 50.1769 29.968 51.0729 27.952C52.0009 25.936 52.4649 23.312 52.4649 20.08V3.664C52.2409 2.928 51.8089 2.32 51.1689 1.84C50.5609 1.328 49.8729 0.975998 49.1049 0.783998H56.2569C55.5209 0.975998 54.8329 1.328 54.1929 1.84C53.5529 2.32 53.1209 2.928 52.8969 3.664V20.08C52.8969 23.44 52.4169 26.192 51.4569 28.336C50.4969 30.48 49.1529 32.064 47.4249 33.088C45.6969 34.112 43.6969 34.624 41.4249 34.624ZM86.3679 34H84.5439L62.9919 3.856V30.592C63.2159 31.328 63.6319 32.032 64.2399 32.704C64.8799 33.344 65.5839 33.776 66.3519 34H59.1999C59.9359 33.776 60.6239 33.344 61.2639 32.704C61.9039 32.032 62.3199 31.328 62.5119 30.592V3.136C62.1919 2.56 61.7759 2.048 61.2639 1.6C60.7839 1.12 60.2559 0.799997 59.6799 0.639997H65.4879L85.8879 29.2V4.096C85.6639 3.36 85.2319 2.656 84.5919 1.984C83.9839 1.312 83.2959 0.863998 82.5279 0.639997H89.6799C88.9439 0.863998 88.2559 1.312 87.6159 1.984C87.0079 2.656 86.5919 3.36 86.3679 4.096V34ZM120.127 34H109.567C110.303 33.776 110.991 33.424 111.631 32.944C112.271 32.432 112.687 31.824 112.879 31.12V22.864C112.879 21.104 112.463 19.584 111.631 18.304C110.831 17.024 109.551 16.384 107.791 16.384C106.607 16.384 105.391 16.816 104.143 17.68C102.895 18.544 101.839 19.712 100.975 21.184C100.143 22.656 99.7269 24.304 99.7269 26.128V31.12C99.9509 31.824 100.367 32.432 100.975 32.944C101.615 33.424 102.303 33.776 103.039 34H92.5749C93.3109 33.776 93.9989 33.424 94.6389 32.944C95.2789 32.432 95.6949 31.824 95.8869 31.12V3.472C95.6949 2.768 95.2789 2.176 94.6389 1.696C93.9989 1.184 93.3109 0.831999 92.5749 0.639997H105.295C108.911 0.639997 111.679 1.088 113.599 1.984C115.551 2.88 116.527 4.608 116.527 7.168C116.527 8.544 116.175 9.68 115.471 10.576C114.767 11.472 113.855 12.256 112.735 12.928C111.647 13.6 110.447 14.24 109.135 14.848L106.975 15.952C107.231 15.92 107.503 15.904 107.791 15.904C110.799 15.904 113.055 16.688 114.559 18.256C116.063 19.792 116.815 21.712 116.815 24.016V31.12C117.007 31.824 117.423 32.432 118.063 32.944C118.703 33.424 119.391 33.776 120.127 34ZM99.7269 22.816C100.335 21.056 101.247 19.6 102.463 18.448C103.679 17.296 104.991 16.272 106.399 15.376C107.487 14.672 108.495 13.92 109.423 13.12C110.383 12.32 111.151 11.408 111.727 10.384C112.335 9.328 112.639 8.048 112.639 6.544C112.639 4.912 112.303 3.712 111.631 2.944C110.991 2.176 110.111 1.68 108.991 1.456C107.903 1.232 106.671 1.12 105.295 1.12H99.7269V22.816ZM132.851 34H122.387C123.123 33.776 123.811 33.424 124.451 32.944C125.091 32.432 125.507 31.824 125.699 31.12V3.472C125.507 2.768 125.091 2.176 124.451 1.696C123.811 1.184 123.123 0.831999 122.387 0.639997H132.851C132.115 0.831999 131.427 1.184 130.787 1.696C130.179 2.176 129.763 2.768 129.539 3.472V31.12C129.763 31.824 130.179 32.432 130.787 32.944C131.427 33.424 132.115 33.776 132.851 34ZM146.979 34.576C144.131 34.576 141.635 33.76 139.491 32.128C137.347 30.464 136.275 28.432 136.275 26.032C136.275 24.208 136.707 22.72 137.571 21.568C138.435 20.416 139.571 19.568 140.979 19.024C142.387 18.448 143.907 18.16 145.539 18.16V18.64C142.979 18.64 140.867 19.28 139.203 20.56C137.571 21.808 136.755 23.632 136.755 26.032C136.755 28.336 137.779 30.256 139.827 31.792C141.907 33.328 144.291 34.096 146.979 34.096C149.507 34.096 151.443 33.488 152.787 32.272C154.163 31.024 154.851 29.376 154.851 27.328C154.851 25.76 154.467 24.432 153.699 23.344C152.963 22.256 152.003 21.312 150.819 20.512C149.667 19.712 148.435 18.96 147.123 18.256C144.627 16.88 142.675 15.712 141.267 14.752C140.083 13.92 139.171 13.008 138.531 12.016C137.923 10.992 137.619 9.696 137.619 8.128C137.619 5.76 138.499 3.872 140.259 2.464C142.051 1.024 144.403 0.303999 147.315 0.303999C149.139 0.303999 150.995 0.431999 152.883 0.688C154.803 0.943998 156.371 1.232 157.587 1.552V8.848C156.403 6.608 154.899 4.704 153.075 3.136C151.251 1.568 149.331 0.783998 147.315 0.783998C145.299 0.783998 143.651 1.264 142.371 2.224C141.123 3.152 140.499 4.432 140.499 6.064C140.499 7.248 140.883 8.32 141.651 9.28C142.419 10.208 143.347 11.056 144.435 11.824C145.523 12.592 146.627 13.296 147.747 13.936L150.387 15.52C151.891 16.384 153.235 17.248 154.419 18.112C155.603 18.976 156.531 19.984 157.203 21.136C157.907 22.288 158.259 23.76 158.259 25.552C158.259 28.176 157.283 30.336 155.331 32.032C153.379 33.728 150.595 34.576 146.979 34.576ZM175.169 34C173.121 34 171.233 33.68 169.505 33.04C167.809 32.4 166.449 31.392 165.425 30.016C164.433 28.608 163.937 26.8 163.937 24.592C163.937 22.224 164.561 20.272 165.809 18.736C167.057 17.168 168.657 16.112 170.609 15.568C168.753 15.28 167.201 14.512 165.953 13.264C164.705 12.016 164.081 10.56 164.081 8.896V3.472C163.889 2.768 163.473 2.176 162.833 1.696C162.193 1.184 161.505 0.831999 160.769 0.639997H184.097L185.057 6.352C183.649 4.88 181.953 3.648 179.969 2.656C178.017 1.632 176.001 1.12 173.921 1.12H167.921V8.896C167.921 10.784 168.305 12.304 169.073 13.456C169.873 14.576 171.041 15.136 172.577 15.136H175.025C178.289 15.136 180.001 14.064 180.161 11.92L184.289 18.976C183.041 17.792 181.697 16.944 180.257 16.432C178.849 15.888 177.697 15.616 176.801 15.616H173.537C172.897 15.616 172.113 15.888 171.185 16.432C170.257 16.976 169.441 17.872 168.737 19.12C168.065 20.336 167.729 21.968 167.729 24.016C167.729 26.928 168.513 29.184 170.081 30.784C171.681 32.352 173.697 33.136 176.129 33.136C178.465 33.136 180.577 32.416 182.465 30.976C184.385 29.536 185.345 27.712 185.345 25.504H185.777C185.777 27.84 184.737 29.84 182.657 31.504C180.609 33.168 178.113 34 175.169 34Z" fill="white"/>
</svg>
